# xmcd
#
# Track frame offsets: 
#        182
#        23045
#        56195
#        79870
#        103610
#        121015
#        139442
#
# Disc length: 2104 seconds
#
# Revision: 0
# Processed by: cddbd v1.5.2PL0 Copyright (c) Steve Scherf et al.
# Submitted via: ExactAudioCopy v0.99pb5
#
DISCID=5a083607
DTITLE=Voices Of Theory - Wherever You Go Remixes
DYEAR=1998
DGENRE=R&B
TTITLE0=Wherever You Go (Cibola Ext Mix)
TTITLE1=Wherever You Go (Ext Dance Mix)
TTITLE2=Wherever You Go (Album Mix)
TTITLE3=Wherever You Go (Spanish Version)
TTITLE4=Wherever You Go (Acapella)
TTITLE5=Wherever You Go (Cibola Radio Mix)
TTITLE6=Wherever You Go (Radio Dance Mix)
EXTD=
EXTT0=
EXTT1=
EXTT2=
EXTT3=
EXTT4=
EXTT5=
EXTT6=
PLAYORDER=
